<svg width="698" height="698" viewBox="0 0 698 698" fill="none" xmlns="http://www.w3.org/2000/svg">
<path d="M698 688C698 693.523 693.523 698 688 698H392.639C387.116 698 382.639 693.523 382.639 688V630.72H620.723C626.245 630.72 630.723 626.243 630.723 620.72V382.64H688C693.523 382.64 698 387.117 698 392.64V688ZM630.723 382.64H525.604V519.8C525.604 525.323 521.126 529.8 515.604 529.8H382.639V630.72H10C4.47715 630.72 0 626.243 0 620.72V10C0 4.47719 4.47715 0 10 0H620.723C626.245 0 630.723 4.47715 630.723 10V382.64ZM115.121 109.319C109.598 109.319 105.121 113.796 105.121 119.319V519.8C105.121 525.323 109.598 529.8 115.121 529.8H382.639V392.64C382.639 387.117 387.116 382.64 392.639 382.64H525.604V119.319C525.604 113.796 521.126 109.319 515.604 109.319H115.121Z" fill="white"/>
</svg>
