<svg width="698" height="697" viewBox="0 0 698 697" fill="none" xmlns="http://www.w3.org/2000/svg">
<path d="M688 382.64C692.971 382.64 697 386.669 697 391.64V687C697 691.971 692.971 696 688 696H392.639C387.668 696 383.639 691.971 383.639 687V631.72H620.723C626.798 631.72 631.723 626.795 631.723 620.72V382.64H688ZM10 1H620.723C625.693 1 629.723 5.02944 629.723 10V380.64H526.604V118.319C526.604 112.244 521.679 107.319 515.604 107.319H115.121C109.046 107.319 104.121 112.244 104.121 118.319V518.8C104.121 524.875 109.046 529.8 115.121 529.8H381.639V629.72H10C5.02944 629.72 1 625.69 1 620.72V10C1.00002 5.02945 5.02945 1 10 1ZM392.639 382.64H524.604V518.8C524.604 523.77 520.574 527.8 515.604 527.8H383.639V391.64C383.639 386.669 387.668 382.64 392.639 382.64Z" stroke="white" stroke-width="2"/>
</svg>
